PathFileType	4	(X/Y/Z)	C:/Users/opensim2020/Desktop/walking_exp_matlab/subject03_walking13_straight_01.trc	
DataRate	CameraRate	NumFrames	NumMarkers	Units	OrigDataRate	OrigDataStartFrame	OrigNumFrames	
100.00	100.00	5	46	mm	100.00	569	185	
Frame#	Time	LFHD			RFHD			LBHD			RBHD			C7			T10			CLAV			STRN			RBAK			LSHO			LUPA			LELB			LFRM			LWRA			LWRB			LFIN			RSHO			RUPA			RELB			RFRM			RWRA			RWRB			RFIN			LASI			RASI			LPSI			RPSI			LTHI			LKNE			LTIB			LANK			LHEE			LTOE			RTHI			RKNE			RTIB			RANK			RHEE			RTOE			*39			*40			*41			*42			*43			*44			*45			
		X1	Y1	Z1	X2	Y2	Z2	X3	Y3	Z3	X4	Y4	Z4	X5	Y5	Z5	X6	Y6	Z6	X7	Y7	Z7	X8	Y8	Z8	X9	Y9	Z9	X10	Y10	Z10	X11	Y11	Z11	X12	Y12	Z12	X13	Y13	Z13	X14	Y14	Z14	X15	Y15	Z15	X16	Y16	Z16	X17	Y17	Z17	X18	Y18	Z18	X19	Y19	Z19	X20	Y20	Z20	X21	Y21	Z21	X22	Y22	Z22	X23	Y23	Z23	X24	Y24	Z24	X25	Y25	Z25	X26	Y26	Z26	X27	Y27	Z27	X28	Y28	Z28	X29	Y29	Z29	X30	Y30	Z30	X31	Y31	Z31	X32	Y32	Z32	X33	Y33	Z33	X34	Y34	Z34	X35	Y35	Z35	X36	Y36	Z36	X37	Y37	Z37	X38	Y38	Z38	X39	Y39	Z39	X40	Y40	Z40	X41	Y41	Z41	X42	Y42	Z42	X43	Y43	Z43	X44	Y44	Z44	X45	Y45	Z45	X46	Y46	Z46	

24	0.230	-1062.51062	-1020.35431	1619.29785	-931.46826	-1046.63916	1613.57874	-1084.68726	-1134.47595	1550.97803	-955.37915	-1156.04785	1545.51746	-1037.41260	-1149.57959	1401.69092	-1034.69763	-1212.14404	1102.47241	-1018.79370	-1026.61877	1324.23206	-1019.38440	-996.21301	1153.33765	-943.98535	-1219.29785	1236.25378	-1177.43774	-1050.45251	1368.64600	-1251.44897	-1085.38550	1175.42590	-1263.01843	-1104.28320	1053.20142	-1265.92371	-1120.08655	923.02527	-1244.67029	-1155.25671	804.96600	-1299.69739	-1154.93579	818.23743	-1295.67786	-1203.90930	742.89899	-868.42578	-1095.39136	1354.71606	-791.38989	-1102.13318	1135.92395	-778.78845	-1082.89795	1024.36731	-780.25952	-1050.66980	891.82990	-821.26764	-1013.35254	801.50909	-773.01581	-1035.90942	793.82446	-784.62683	-998.09119	731.58423	-1126.47400	-1055.95203	931.74664	-900.17017	-1093.88562	915.84491	-1107.16101	-1222.71313	958.85864	-958.68542	-1242.60291	958.69122	-1186.65454	-1052.88818	636.83685	-1141.40002	-1010.51910	467.42996	-1153.29224	-1059.42554	272.79370	-1118.26807	-1092.20068	63.96769	-1089.74695	-1139.55298	28.36424	-1064.35596	-950.18469	31.16861	-858.74072	-1177.11011	617.45276	-876.02783	-1170.49402	436.86240	-895.17328	-1325.23584	324.11783	-962.24530	-1490.45898	198.29160	-1025.84290	-1527.45374	213.67805	-963.51117	-1453.91602	59.69555	-1025.64063	-1121.77417	1657.77417																		 
25	0.240	-1063.19385	-1010.27112	1621.08374	-932.27856	-1036.76172	1615.50903	-1085.61426	-1124.24670	1552.73621	-956.35651	-1146.16260	1547.42017	-1038.96631	-1139.43103	1403.15417	-1035.69312	-1201.66992	1104.06641	-1018.92633	-1016.54425	1326.02222	-1019.21490	-985.89789	1155.08813	-945.99573	-1209.58557	1237.67725	-1177.86157	-1038.65625	1369.96094	-1251.54919	-1070.15771	1176.21924	-1263.09924	-1087.94531	1053.85022	-1265.48486	-1102.01306	923.35388	-1243.51184	-1136.48987	804.39966	-1298.99268	-1134.74707	817.89514	-1295.49805	-1183.31458	741.62177	-869.26208	-1086.72314	1356.27869	-792.27686	-1094.49207	1137.53906	-779.33258	-1075.97925	1025.84155	-780.19250	-1044.93848	893.00122	-820.45441	-1008.17950	802.01483	-772.40491	-1031.40601	794.81488	-783.78369	-994.80920	731.66248	-1127.73364	-1045.54944	933.07764	-900.74817	-1083.28271	917.48505	-1107.63953	-1212.33508	960.38745	-959.23004	-1231.99329	959.72382	-1187.05762	-1047.68066	637.06097	-1141.28687	-1008.00226	466.68375	-1153.85364	-1058.33191	272.71600	-1116.80066	-1094.56140	61.17469	-1089.70117	-1139.84619	28.41916	-1064.35547	-950.54626	31.18526	-858.84039	-1159.89893	618.08783	-874.87537	-1145.93164	437.50235	-894.68573	-1300.22766	326.41580	-961.50696	-1467.99646	203.96439	-1024.56665	-1506.15710	219.30371	-963.50293	-1430.12158	65.71956	-1026.69116	-1111.65771	1659.57959																		 
26	0.250	-1063.81982	-1000.17035	1622.83203	-932.99774	-1026.89941	1617.44299	-1086.56824	-1113.98230	1554.23352	-957.25311	-1136.22046	1549.26892	-1040.13940	-1128.94348	1404.69507	-1036.56824	-1191.17285	1105.59314	-1018.94391	-1006.45288	1327.80042	-1018.99182	-975.61096	1156.90430	-948.03156	-1199.89771	1239.03577	-1178.18335	-1027.06335	1371.14026	-1251.36108	-1054.86621	1176.79480	-1262.95996	-1071.52356	1054.26819	-1265.06921	-1083.45032	923.70764	-1242.77759	-1116.42639	804.28943	-1298.30408	-1114.01440	817.51697	-1294.40771	-1162.79602	739.71808	-869.85608	-1077.91260	1357.83240	-792.94403	-1087.05957	1138.98486	-779.72687	-1069.26624	1027.18994	-779.90289	-1039.63232	893.96240	-819.64679	-1003.18335	802.40576	-771.85742	-1027.10559	795.65198	-782.86780	-991.53583	731.48120	-1128.80103	-1035.16687	934.25134	-901.16260	-1072.90491	919.09259	-1108.10901	-1201.98376	961.94952	-959.75903	-1221.38721	960.72906	-1187.26721	-1041.73633	637.66278	-1141.21802	-1005.36884	466.23856	-1153.91211	-1057.68262	272.49258	-1118.45532	-1092.09766	63.70774	-1089.89917	-1140.14417	28.30256	-1064.26746	-950.87921	31.29595	-859.03113	-1142.84460	619.38031	-873.80231	-1121.55322	439.19434	-894.39752	-1274.89868	328.80029	-960.80054	-1443.98035	207.79248	-1023.37701	-1483.45496	222.98714	-963.27802	-1404.21460	70.33244	-1027.61560	-1101.81604	1661.56226																		 
27	0.260	-1064.44055	-990.01007	1624.53088	-933.61652	-1017.02600	1619.34021	-1087.30798	-1103.77490	1555.85498	-958.05457	-1126.17505	1551.04578	-1041.13025	-1118.53967	1406.54395	-1037.39893	-1180.68506	1106.97070	-1019.24957	-996.28168	1329.54944	-1018.82428	-965.35413	1158.60266	-949.97656	-1190.22876	1240.45032	-1178.44507	-1015.60925	1372.26221	-1250.86853	-1039.59778	1177.32178	-1262.66748	-1054.68481	1054.67017	-1264.19873	-1064.65735	923.96417	-1242.04565	-1095.72717	804.20959	-1297.61816	-1092.78528	817.19220	-1294.12830	-1139.09558	738.12616	-870.35876	-1068.97351	1359.16211	-793.56946	-1079.65662	1140.33472	-780.05219	-1062.63452	1028.37976	-779.68121	-1034.41748	894.81409	-818.68256	-998.81921	802.69836	-771.33496	-1023.08813	796.34198	-782.18713	-988.61133	731.40784	-1129.84070	-1024.94568	935.24176	-901.75275	-1062.19202	920.85175	-1108.45276	-1191.69812	963.48834	-960.25232	-1210.80505	961.84070	-1187.37537	-1035.23779	638.44397	-1141.49414	-1002.66547	466.35767	-1154.06067	-1056.95654	272.34988	-1118.59644	-1092.28772	63.66258	-1090.04810	-1140.32288	28.20131	-1064.31580	-951.13293	31.43617	-859.22614	-1125.54272	621.08685	-872.95331	-1097.40002	441.73938	-893.61969	-1249.41211	330.82135	-960.02490	-1418.79590	209.90947	-1022.22839	-1459.45056	224.66246	-963.49274	-1376.38965	73.22803	-1028.41333	-1091.78784	1663.32617																		 
28	0.270	-1065.01294	-979.72150	1626.04785	-934.18585	-1007.06244	1621.15894	-1087.97363	-1093.40942	1557.39539	-958.74402	-1116.13184	1552.73938	-1041.84668	-1107.98169	1408.14160	-1038.33447	-1170.11475	1108.37732	-1019.20026	-986.17010	1331.21326	-1018.61304	-955.16107	1160.24426	-951.82117	-1180.52356	1241.87012	-1178.69055	-1004.35278	1373.41162	-1250.26013	-1024.42749	1177.88330	-1262.31531	-1037.73193	1055.27063	-1263.64636	-1045.35913	924.32172	-1241.26880	-1074.45422	804.16522	-1296.79480	-1071.12463	816.95508	-1293.61731	-1114.17896	736.38104	-870.67981	-1060.12085	1360.51184	-794.11902	-1072.39331	1141.64111	-780.33130	-1056.08521	1029.51318	-779.17267	-1029.41211	895.59460	-818.17944	-994.12927	802.91656	-770.80682	-1019.32050	796.94672	-781.29645	-985.97198	731.27228	-1130.86108	-1014.76477	936.26288	-902.42267	-1051.27747	922.67383	-1108.72449	-1181.39453	964.96338	-960.67847	-1200.14331	963.18188	-1187.03650	-1029.78369	638.09546	-1141.37683	-1000.68793	466.05167	-1154.29419	-1056.19495	272.32581	-1118.68152	-1092.45752	63.63050	-1090.04810	-1140.44641	28.20541	-1064.21582	-951.47528	31.49319	-859.47888	-1107.50427	623.02942	-872.28558	-1073.46191	444.86914	-892.69135	-1223.66565	332.09998	-959.18573	-1392.65039	210.30199	-1020.98163	-1434.50403	224.38031	-963.54218	-1346.78503	74.91517	-1029.21301	-1081.60095	1664.86365																		 
